<?xml version="1.0" standalone="no"?>
<!DOCTYPE svg PUBLIC "-//W3C//DTD SVG 20010904//EN"
 "http://www.w3.org/TR/2001/REC-SVG-20010904/DTD/svg10.dtd">
<svg version="1.0" xmlns="http://www.w3.org/2000/svg"
 width="1920.000000pt" height="1313.000000pt" viewBox="0 0 1920.000000 1313.000000"
 preserveAspectRatio="xMidYMid meet">
<metadata>
Created by potrace 1.16, written by Peter Selinger 2001-2019
</metadata>
<g transform="translate(0.000000,1313.000000) scale(0.100000,-0.100000)"
fill="#000000" stroke="none">
<path d="M0 6565 l0 -6565 9600 0 9600 0 0 6565 0 6565 -9600 0 -9600 0 0
-6565z m10484 415 c81 -11 151 -18 155 -16 3 2 27 0 53 -4 25 -5 84 -12 130
-15 45 -3 110 -8 143 -10 33 -2 101 -7 150 -10 50 -4 137 -13 195 -22 58 -8
121 -17 140 -19 130 -11 575 -131 617 -166 7 -6 13 -8 13 -5 0 8 272 -86 331
-113 24 -12 37 -19 29 -18 -27 6 -134 40 -156 50 -12 6 -31 7 -42 4 -11 -4
-23 -2 -26 3 -4 5 -27 13 -51 17 -25 3 -48 10 -51 15 -3 5 -10 7 -15 3 -5 -3
-20 1 -33 9 -15 10 -60 17 -132 21 -148 8 -199 15 -264 37 -97 34 -331 89
-380 89 -41 0 -83 6 -175 26 -79 16 -239 40 -325 48 -138 13 -186 19 -195 27
-6 4 -42 4 -80 -2 -37 -5 -82 -9 -99 -8 -17 1 -56 -1 -86 -4 -30 -4 -99 -3
-152 1 -56 4 -98 4 -98 -1 0 -5 -12 -6 -27 -2 -16 4 -68 6 -118 4 -49 -1 -124
-2 -165 -2 -41 1 -79 -2 -85 -7 -5 -4 -22 -7 -38 -5 -15 2 -33 -2 -40 -9 -6
-7 -30 -13 -52 -14 -52 -3 -128 -9 -137 -12 -21 -6 -34 -5 -40 5 -6 7 -10 7
-15 -1 -5 -6 -24 -12 -43 -13 -19 -1 -44 -3 -55 -3 -55 -4 -76 3 -85 26 -5 13
-15 26 -22 29 -7 3 -3 6 9 6 12 1 25 -4 28 -9 4 -6 11 -7 17 -4 7 4 6 9 -3 15
-9 5 -6 9 12 13 13 2 38 8 54 11 17 4 39 8 50 10 11 2 52 9 90 15 104 17 588
39 765 35 85 -3 222 -14 304 -25z m-1814 -116 c0 -12 9 -14 43 -10 182 21 170
21 158 -2 -9 -17 -21 -22 -52 -22 -22 0 -56 -7 -77 -16 -20 -8 -55 -17 -76
-18 -23 -2 -45 -11 -52 -21 -8 -10 -20 -15 -29 -12 -8 4 -15 1 -15 -6 0 -8 -3
-8 -9 2 -7 11 -10 9 -16 -9 -5 -16 -12 -20 -28 -16 -12 3 -26 1 -33 -5 -13
-11 -37 -17 -99 -25 -158 -20 -396 -62 -620 -109 -38 -9 -83 -15 -98 -15 -16
0 -26 -4 -23 -9 5 -7 -23 -13 -139 -28 -22 -2 -45 -9 -51 -14 -6 -5 -14 -6
-17 -2 -4 3 -12 1 -19 -5 -19 -15 -120 -23 -136 -10 -9 8 -11 7 -6 -6 8 -22
-29 -22 -51 0 -13 14 -14 19 -4 25 14 8 31 -9 23 -23 -3 -4 0 -8 6 -8 7 0 9 7
6 16 -3 8 -1 25 6 37 l12 22 7 -25 c7 -24 7 -24 8 -3 1 25 18 34 146 75 160
52 284 86 450 122 39 8 102 22 140 31 97 22 160 34 230 45 33 5 101 16 150 24
50 8 115 17 145 21 78 8 89 10 96 18 10 10 24 -2 24 -19z m2965 -229 c110 -8
218 -17 240 -20 22 -3 92 -12 155 -21 153 -20 231 -32 315 -50 39 -8 93 -19
120 -24 324 -63 353 -74 758 -276 114 -57 305 -163 425 -236 119 -72 246 -148
282 -168 95 -53 547 -383 629 -459 16 -14 57 -51 92 -81 99 -85 185 -170 172
-170 -6 0 -14 6 -16 13 -3 7 -6 5 -6 -5 -1 -12 6 -18 22 -18 22 0 57 -31 57
-51 0 -5 4 -8 9 -5 5 4 7 -4 4 -15 -6 -20 -8 -18 -25 15 -10 20 -26 36 -34 36
-14 0 -14 -2 -3 -16 12 -14 11 -16 -6 -13 -11 3 -20 11 -20 19 0 8 -9 16 -20
19 -11 2 -25 12 -32 22 -16 22 -72 51 -85 43 -5 -3 -12 4 -15 16 -3 13 -9 17
-12 11 -5 -7 -25 -2 -62 16 -30 15 -59 26 -65 25 -7 -1 -15 10 -19 25 -6 21
-9 24 -12 11 -5 -20 -18 -23 -29 -7 -3 6 -25 19 -48 30 -51 23 -76 39 -96 60
-26 28 -117 65 -145 60 -3 -1 -18 5 -35 14 -16 8 -37 15 -48 15 -10 0 -27 7
-38 15 -16 13 -17 16 -4 25 13 9 12 12 -4 25 -11 8 -16 15 -11 15 4 0 0 9 -11
21 -19 22 -94 64 -94 54 0 -4 -12 1 -27 9 -16 8 -50 25 -78 38 -27 13 -52 25
-55 28 -3 3 -34 20 -70 38 -36 18 -78 41 -95 52 -28 19 -53 32 -185 100 -30
16 -93 40 -140 55 -47 15 -98 33 -115 40 -72 33 -262 102 -370 136 -38 11 -79
25 -90 30 -11 5 -33 11 -50 13 -38 6 -172 42 -350 95 -162 49 -163 49 -191 50
-11 1 -29 7 -40 15 -17 13 -10 14 61 11 44 -3 127 -11 185 -19 62 -9 109 -11
114 -6 6 6 3 12 -7 16 -21 8 -22 24 -2 24 8 0 15 7 15 15 0 8 -7 15 -15 15 -8
0 -15 6 -16 13 0 6 -5 0 -11 -16 -11 -30 -28 -28 -28 4 0 11 -10 23 -23 28
-20 8 -38 26 -65 67 -6 9 -74 29 -128 38 -11 1 -26 6 -32 9 -12 8 -182 40
-297 57 -44 6 -98 15 -120 20 -111 25 -217 41 -232 36 -9 -4 -25 1 -37 13 -12
10 -28 21 -36 24 -8 2 -1 3 15 0 17 -2 120 -10 230 -18z m-4490 -175 c0 -10
-16 -17 -55 -22 -30 -5 -64 -12 -75 -18 -97 -47 -313 -98 -321 -75 -5 12 85
55 115 55 12 0 21 3 21 8 0 4 12 8 28 9 15 1 77 15 137 32 117 32 150 35 150
11z"/>
</g>
</svg>
